<svg xmlns="http://www.w3.org/2000/svg" viewBox="0 0 24 24" width="48" height="48">
  <path fill="#25D366" d="M12.031 0C5.385 0 0 5.384 0 12.03c0 2.12.553 4.195 1.604 6.012L.452 22.45l4.52-1.185a11.96 11.96 0 0 0 7.058 2.25h.005c6.645 0 12.03-5.385 12.03-12.03S18.677 0 12.031 0zm0 21.492a9.92 9.92 0 0 1-5.06-1.385l-.363-.214-3.763.987.998-3.668-.235-.374a9.933 9.933 0 0 1-1.517-5.309c0-5.485 4.464-9.95 9.95-9.95 2.658 0 5.158 1.036 7.037 2.915 1.88 1.88 2.916 4.38 2.916 7.036 0 5.485-4.465 9.95-9.957 9.95zM17.49 14.5c-.3-.15-1.767-.872-2.04-.97-.272-.1-.472-.15-.67.15-.2.3-.77 1-.94 1.2-.172.202-.345.226-.645.076-.3-.15-1.26-.465-2.4-1.485-.886-.79-1.485-1.766-1.656-2.066-.17-.3-.018-.46.132-.61.134-.134.3-.35.45-.525.15-.175.2-.3-.5.1-.2.05-.375-.025-.525-.075-.15-.67-1.616-.918-2.213-.242-.582-.488-.503-.67-.512-.172-.008-.372-.008-.572-.008s-.525.075-.8.375c-.274.3-1.045 1.022-1.045 2.49 0 1.468 1.072 2.885 1.22 3.085.15.2 2.102 3.208 5.093 4.498 2.197.948 2.868.966 3.407.817.585-.162 1.767-.722 2.016-1.422.25-.7.25-1.3.175-1.422-.075-.125-.274-.2-.573-.35z"/>
  <!-- Punto rojo de notificación -->
  <circle cx="19" cy="5" r="5" fill="#FF3B30"/>
</svg>
